<?xml version="1.0" standalone="no"?>
<!DOCTYPE svg PUBLIC "-//W3C//DTD SVG 20010904//EN"
 "http://www.w3.org/TR/2001/REC-SVG-20010904/DTD/svg10.dtd">
<svg version="1.0" xmlns="http://www.w3.org/2000/svg"
 width="261.000000pt" height="261.000000pt" viewBox="0 0 261.000000 261.000000"
 preserveAspectRatio="xMidYMid meet">
<metadata>
Created by potrace 1.11, written by Peter Selinger 2001-2013
</metadata>
<g transform="translate(0.000000,261.000000) scale(0.100000,-0.100000)"
fill="#000000" stroke="none">
<path d="M55 2092 l-50 -3 0 -774 0 -775 1300 2 1300 3 0 768 c0 422 -3 767
-6 767 -3 0 -15 -8 -26 -17 -32 -28 -184 -166 -207 -188 -12 -11 -42 -38 -67
-60 -71 -64 -228 -206 -283 -257 -28 -26 -55 -47 -61 -47 -5 0 -30 18 -55 41
-25 22 -85 77 -134 122 -49 44 -97 88 -106 96 -9 8 -57 51 -106 96 -268 243
-242 224 -298 225 -234 2 -1162 3 -1201 1z m1250 -777 c0 -421 -4 -765 -8
-765 -6 0 -317 247 -537 427 -158 129 -271 220 -337 273 -45 35 -81 65 -80 66
1 1 76 61 167 135 91 74 183 148 204 164 21 17 44 35 50 40 6 6 78 64 160 130
82 66 196 159 255 207 58 47 111 87 116 87 7 1 10 -260 10 -764z"/>
</g>
</svg>
